<svg xmlns="http://www.w3.org/2000/svg" width="19" height="19" viewBox="0 0 19 19" fill="none">
  <g clip-path="url(#clip0_1678_2251)">
    <path d="M9.55129 0C10.9636 0.0420199 12.4041 0.0770365 13.8446 0.140066C14.8072 0.182086 15.7207 0.434206 16.5498 0.945448C17.7514 1.6878 18.4611 2.77331 18.7702 4.13196C18.9459 4.90232 18.981 5.68669 18.988 6.47107C19.0021 8.50903 19.0021 10.547 18.988 12.585C18.988 13.3553 18.9459 14.1327 18.7702 14.8961C18.4329 16.3527 17.653 17.4873 16.332 18.2156C15.5731 18.6358 14.744 18.8319 13.8797 18.895C12.2987 19 10.7177 19.007 9.12969 18.993C8.04759 18.986 6.95846 18.972 5.87636 18.937C4.9629 18.909 4.05647 18.8039 3.19922 18.4467C1.92037 17.9145 1.03502 16.9971 0.522073 15.7154C0.191821 14.8891 0.114528 14.0276 0.0723684 13.1592C-0.0189777 11.2753 0.00210215 9.39845 0.00210215 7.52857C0.00210215 6.68817 0.0442619 5.84777 0.114528 5.00737C0.205874 3.90085 0.550179 2.87136 1.25987 1.99595C1.96956 1.12753 2.87599 0.574272 3.95809 0.322153C4.41482 0.217103 4.88561 0.140066 5.34937 0.12606C6.74064 0.0630299 8.13191 0.0420199 9.55129 0ZM1.66741 9.47549C1.66741 9.47549 1.69552 9.47549 1.70957 9.47549C1.70957 10.4349 1.69552 11.3874 1.70957 12.3468C1.72363 12.9421 1.74471 13.5374 1.822 14.1187C2.01172 15.5754 2.77059 16.6049 4.21808 17.0461C4.59752 17.1651 5.00506 17.2352 5.40558 17.2492C6.48768 17.2982 7.57681 17.3262 8.65891 17.3332C9.98694 17.3402 11.3079 17.3262 12.636 17.3122C13.2824 17.3052 13.9219 17.2842 14.5542 17.1371C15.5099 16.92 16.2687 16.4228 16.7606 15.5684C17.0417 15.0781 17.1963 14.5459 17.2384 13.9856C17.2876 13.3273 17.3368 12.669 17.3368 12.0107C17.3438 10.1058 17.3438 8.20088 17.3227 6.29598C17.3227 5.73572 17.2595 5.16845 17.1611 4.61519C16.9784 3.5787 16.4304 2.77331 15.4888 2.26207C14.8845 1.93292 14.231 1.79985 13.5494 1.77184C12.5446 1.73682 11.5328 1.70181 10.528 1.6948C9.1578 1.6878 7.78058 1.70181 6.41039 1.72282C5.78502 1.72982 5.15965 1.75783 4.54833 1.8909C3.18516 2.18503 2.29278 2.97641 1.92037 4.32805C1.78687 4.81828 1.73768 5.32952 1.72363 5.83376C1.69552 7.04534 1.68147 8.26392 1.66039 9.48249L1.66741 9.47549Z" fill="#FFFAF3"/>
    <path d="M9.52114 14.3568C6.82994 14.3848 4.63061 12.1647 4.65871 9.46844C4.68682 6.80718 6.85805 4.66416 9.53519 4.67817C12.2264 4.69218 14.3906 6.8632 14.3836 9.53147C14.3765 12.2838 12.1069 14.3988 9.52114 14.3568ZM12.7183 9.53147C12.7183 7.75963 11.2708 6.31695 9.49303 6.31695C7.76448 6.31695 6.317 7.76663 6.317 9.48945C6.317 11.2893 7.73638 12.704 9.55627 12.704C11.2848 12.704 12.7112 11.2683 12.7112 9.53147H12.7183Z" fill="#FFFAF3"/>
    <path d="M15.7115 4.43305C15.7185 5.05634 15.2337 5.55358 14.6153 5.56058C13.997 5.56058 13.5051 5.09136 13.4981 4.48907C13.484 3.86578 13.9689 3.35454 14.5802 3.34753C15.2126 3.34753 15.7045 3.81676 15.7115 4.43305Z" fill="#FFFAF3"/>
  </g>
  <defs>
    <clipPath id="clip0_1678_2251">
      <rect width="19" height="19" fill="white"/>
    </clipPath>
  </defs>
</svg>