<svg xmlns="http://www.w3.org/2000/svg" width="47" height="44" viewBox="0 0 47 44" fill="none">
  <g clip-path="url(#clip0_1678_2172)">
    <path fill-rule="evenodd" clip-rule="evenodd" d="M21.6717 43.7311C21.5882 43.7311 21.5047 43.6985 21.4463 43.6333L13.2234 34.7926C12.0296 35.4607 10.9193 35.9822 9.9175 36.3326C8.68198 36.8378 7.58837 37.0904 6.67843 37.0904C6.54486 37.0904 6.41685 37.0849 6.29441 37.0741C6.16919 37.0659 6.05232 36.9763 6.01892 36.8459C5.99388 36.7237 6.04397 36.5852 6.16084 36.52C6.17754 36.5037 8.06422 35.3385 11.4452 32.8859L1.52763 22.2119C1.4191 22.0978 1.4191 21.9267 1.52763 21.8126L6.83704 16.1007L6.65338 15.9378L5.67665 15.017C5.35386 14.7074 5.03663 14.4032 4.72496 14.1044C3.26404 12.703 1.84486 11.3096 0.509155 9.95704C0.267059 9.71259 0.292103 9.29704 0.567591 9.01185L1.74468 7.75704C1.90329 7.58593 2.12034 7.48815 2.32905 7.48815C2.49601 7.48815 2.64628 7.55333 2.7548 7.65926C4.1072 9.0363 5.50969 10.4215 6.92887 11.7904C7.44645 12.2847 7.96126 12.7736 8.47328 13.257C8.49554 13.2733 8.51502 13.2923 8.53171 13.3141C8.64024 7.80593 11.2198 1.15704 12.5806 0.985928C12.6028 0.980495 12.6251 0.977779 12.6473 0.977779C12.9395 0.977779 13.3569 1.20593 14.3504 2.82741C14.893 3.70741 15.5274 4.88889 16.1202 6.11926L21.4463 0.391112C21.5047 0.334075 21.5882 0.293335 21.6717 0.293335C21.7552 0.293335 21.8386 0.334075 21.8971 0.391112L27.1648 6.06222C29.0765 2.32222 29.9029 0.977779 30.6042 0.977779C30.6209 0.977779 30.6404 0.980495 30.6626 0.985928C32.0067 1.14074 34.0186 6.55111 34.6029 11.4563C34.8033 11.4644 34.9869 11.5459 35.1122 11.6844L35.9386 12.6296C38.5933 10.12 41.198 7.53704 43.6941 4.94593C43.8026 4.83185 43.9612 4.76667 44.1282 4.76667C44.2784 4.76667 44.4287 4.81556 44.5539 4.91333C45.0548 5.28815 45.539 5.85037 45.8061 6.24148C45.9731 6.50222 45.9564 6.82815 45.7477 7.04C44.3285 8.44963 41.4234 11.2933 37.7585 14.7237L38.6184 15.7015C38.8772 15.9948 38.8438 16.443 38.5349 16.6956L38.4347 16.777C38.3012 16.8911 38.1425 16.9481 37.9672 16.9481C37.7502 16.9481 37.5498 16.8585 37.4163 16.7037L36.6232 15.7911L36.3894 15.9948L41.7155 21.7311C41.8241 21.8452 41.8241 22.0244 41.7239 22.1385L32.2237 32.4378C34.6447 34.1163 36.1306 35.0615 36.1473 35.0696C36.2225 35.1185 36.2809 35.2 36.2893 35.2815C36.2976 35.3711 36.2726 35.4607 36.2058 35.5259L36.1891 35.5504C35.588 36.1859 34.7449 36.5363 33.8266 36.5363C33.1921 36.5363 32.5576 36.3652 31.9983 36.0474C31.4056 35.7052 30.7377 35.2978 30.0198 34.8333L21.9054 43.6333C21.847 43.6985 21.7635 43.7311 21.6717 43.7311ZM34.7198 13.64C34.7254 13.64 34.7309 13.6373 34.7365 13.6319L34.7198 13.6156C34.7198 13.6264 34.7198 13.6346 34.7198 13.64Z" fill="url(#paint0_radial_1678_2172)"/>
    <path fill-rule="evenodd" clip-rule="evenodd" d="M22.1309 0.187378L27.0897 5.53256C29.2351 1.36886 29.8529 0.676266 30.6042 0.676266C30.6321 0.676266 30.6627 0.678982 30.6961 0.684414C31.1636 0.741451 31.5893 1.12441 32.0819 1.92293C32.4575 2.54219 32.8499 3.39775 33.2255 4.39182C33.9936 6.4696 34.5946 8.91404 34.8785 11.1955C35.0621 11.2526 35.2291 11.3503 35.346 11.4889L35.9554 12.1896C38.5266 9.7533 41.0561 7.25182 43.4604 4.74219C43.6357 4.56293 43.8778 4.46515 44.1282 4.46515C44.3453 4.46515 44.5623 4.53849 44.746 4.66886C45.2719 5.06812 45.7811 5.66293 46.065 6.07849C46.3154 6.46145 46.2737 6.94219 45.9648 7.25182C44.5707 8.63701 41.7573 11.4074 38.1843 14.74L38.8522 15.5059C39.2195 15.9296 39.1694 16.5652 38.7353 16.9237L38.6351 17.0133C38.4515 17.16 38.2177 17.2496 37.9756 17.2496L41.9493 21.5274C42.1664 21.7555 42.1664 22.1059 41.9493 22.3422L32.6913 32.3889C34.9369 33.937 36.306 34.8089 36.3144 34.817C36.473 34.9148 36.5732 35.0696 36.5982 35.2489C36.6149 35.42 36.5565 35.5992 36.4396 35.7296L36.4145 35.754C35.755 36.4548 34.8367 36.8377 33.8266 36.8377C33.1421 36.8377 32.4492 36.6503 31.8398 36.3081C31.3055 35.9985 30.7128 35.64 30.07 35.2244L22.1309 43.837C22.014 43.9592 21.847 44.0326 21.6717 44.0326C21.4964 44.0326 21.3295 43.9592 21.2126 43.837L13.165 35.1755C12.038 35.7948 10.9861 36.2755 10.0344 36.6177C8.74047 37.1392 7.63852 37.3918 6.67848 37.3918C6.53934 37.3918 6.40299 37.3864 6.26942 37.3755C6.01063 37.3511 5.78523 37.1718 5.71844 36.9192C5.66001 36.6666 5.76853 36.4059 5.99393 36.2674C6.01063 36.2511 7.78878 35.1511 10.9861 32.837L1.30228 22.4155C1.08523 22.1874 1.08523 21.837 1.30228 21.6089L6.40299 16.117C6.3529 16.0681 6.30281 16.0192 6.25272 15.9703C6.18594 15.9106 6.12194 15.8508 6.06072 15.7911L5.45965 15.2289C5.13686 14.9247 4.81963 14.6205 4.50797 14.3163C3.04704 12.9148 1.61951 11.5215 0.283808 10.1607C-0.0668136 9.81034 -0.0417687 9.20738 0.333897 8.80812L1.51933 7.54515C1.73639 7.31701 2.02857 7.18664 2.3291 7.18664C2.57955 7.18664 2.81329 7.28441 2.98026 7.45552C4.32431 8.82441 5.72679 10.2096 7.14598 11.5703C7.51329 11.9289 7.88061 12.2792 8.24793 12.6214C8.37315 10.3318 8.88239 7.74886 9.69216 5.32886C10.1096 4.11478 10.5687 3.03923 11.0195 2.22441C11.7291 0.937007 12.2049 0.725155 12.5472 0.684414C12.5806 0.678982 12.614 0.676266 12.6474 0.676266C13.1065 0.676266 13.5991 1.01034 14.6176 2.67256C15.1017 3.46293 15.6611 4.4896 16.2037 5.58145L21.2126 0.187378C21.3295 0.0651554 21.4964 -0.00817871 21.6717 -0.00817871C21.847 -0.00817871 22.014 0.0651554 22.1309 0.187378ZM16.0367 6.65701C14.7929 4.02515 13.2067 1.28738 12.6474 1.28738C12.6363 1.28738 12.6279 1.28738 12.6224 1.28738C11.5454 1.41775 8.72377 8.19701 8.849 14.0229C8.65421 13.8437 8.45663 13.659 8.25628 13.4689C7.74426 12.9908 7.22946 12.5019 6.71187 12.0022C5.34278 10.6822 3.94864 9.30515 2.5378 7.87108C2.47937 7.81404 2.40423 7.7896 2.3291 7.7896C2.21223 7.7896 2.07866 7.84664 1.97848 7.96071L0.793045 9.21552C0.63443 9.38664 0.601038 9.61478 0.734608 9.74515C2.02857 11.057 3.44775 12.4503 4.94207 13.8844C5.25373 14.1886 5.57096 14.4928 5.89376 14.797C6.08855 14.9817 6.28612 15.1691 6.48647 15.3592C6.61448 15.4787 6.7397 15.5982 6.86214 15.7177C6.99571 15.8427 7.12928 15.9676 7.26285 16.0926L1.76143 22.0163L11.9044 32.9266C8.29802 35.5503 6.31951 36.7726 6.31951 36.7726C6.43639 36.7834 6.55604 36.7889 6.67848 36.7889C7.58008 36.7889 8.63194 36.5281 9.80903 36.0555C10.8943 35.6644 12.0547 35.1103 13.2902 34.4096L21.6717 43.4296L29.9614 34.434C30.7545 34.9555 31.4891 35.4037 32.157 35.7866C32.6829 36.0881 33.2589 36.2348 33.8266 36.2348C34.628 36.2348 35.4044 35.9333 35.9554 35.3466C35.9665 35.3412 35.9749 35.3331 35.9804 35.3222C35.9804 35.3222 34.3859 34.3118 31.7646 32.4866L41.4902 21.9348L35.9554 15.9785C36.1836 15.7666 36.4145 15.5575 36.6483 15.3511L37.6501 16.5081C37.7335 16.5977 37.8504 16.6466 37.9673 16.6466C38.0591 16.6466 38.1593 16.614 38.2344 16.5489L38.3346 16.4674C38.5099 16.3207 38.5266 16.0681 38.3847 15.897L37.3412 14.6992C41.0978 11.1955 44.0865 8.26219 45.5224 6.82812C45.6309 6.72219 45.6392 6.55108 45.5474 6.41256C45.2886 6.0296 44.8211 5.49182 44.362 5.1496C44.2952 5.09256 44.2117 5.06812 44.1282 5.06812C44.0531 5.06812 43.9696 5.10071 43.9195 5.15775C41.2147 7.96886 38.535 10.6089 35.9137 13.0696L34.8785 11.88C34.8033 11.7985 34.6865 11.7577 34.5696 11.7577C34.4861 11.7577 34.4026 11.7822 34.3275 11.8229C33.7765 6.50219 31.6227 1.40145 30.6293 1.28738C30.6182 1.28738 30.6098 1.28738 30.6042 1.28738C29.9781 1.27923 28.6675 3.78071 27.2399 6.59182L21.6717 0.594785L16.0367 6.65701ZM34.3943 14.2918C34.4193 13.8029 34.4193 13.3059 34.411 12.7926L35.1623 13.6563C34.9174 13.8844 34.6726 14.1098 34.4277 14.3326L34.3943 14.2918Z" fill="white"/>
    <path d="M21.6718 0.594727L1.76147 22.0162L21.6718 43.4295L41.4902 21.9347L21.6718 0.594727Z" fill="url(#paint1_linear_1678_2172)"/>
    <path d="M21.6718 1.31177L2.42102 22.0162L21.6718 42.7125L40.8308 21.9347L21.6718 1.31177Z" fill="url(#paint2_linear_1678_2172)"/>
    <path d="M21.6634 2.77026L3.77332 22.0162L21.6634 41.254L39.4783 21.9429L21.6634 2.77026Z" fill="url(#paint3_radial_1678_2172)"/>
    <path d="M6.31116 36.7725C6.31116 36.7725 17.4977 29.8548 35.3209 13.4933L36.6399 15.0007C25.5369 25.1614 12.2467 37.2533 6.31116 36.7725Z" fill="url(#paint4_linear_1678_2172)"/>
    <path d="M44.3453 5.14958C44.8044 5.49181 45.2719 6.02958 45.5307 6.41255C45.6225 6.55106 45.6142 6.72218 45.5056 6.8281C44.0614 8.26218 41.0561 11.22 37.266 14.7481L35.8385 13.1185C38.4765 10.6414 41.1813 7.98514 43.9028 5.15773C44.0113 5.04366 44.2033 5.03551 44.3453 5.14958Z" fill="url(#paint5_linear_1678_2172)"/>
    <path d="M36.1223 14.5607L36.7317 15.2614C26.6555 24.4525 15.6944 34.5481 8.74878 36.3814C21.63 29.5207 36.1223 14.5607 36.1223 14.5607Z" fill="#F7F7F7"/>
    <path d="M34.1355 12.4911L37.6334 16.5C37.7837 16.6711 38.0425 16.6955 38.2178 16.5489L38.3179 16.4674C38.4933 16.3207 38.5099 16.0681 38.368 15.897L34.8618 11.8881C34.7115 11.717 34.4528 11.6926 34.2774 11.8392L34.1773 11.9207C34.002 12.0674 33.9853 12.32 34.1355 12.4911Z" fill="url(#paint6_linear_1678_2172)"/>
    <path d="M37.5499 13.0859L38.1259 13.1347C38.2011 13.1347 38.2595 13.0859 38.2679 13.0125L38.3096 12.4503C38.318 12.3851 38.2679 12.3199 38.1927 12.3199L37.6167 12.271C37.5499 12.2629 37.4831 12.3199 37.4748 12.3851L37.433 12.9473C37.4247 13.0207 37.4831 13.0777 37.5499 13.0859Z" fill="url(#paint7_linear_1678_2172)"/>
    <path d="M38.7854 11.9532L39.3614 12.0021C39.4365 12.0021 39.495 11.9532 39.5033 11.8799L39.5451 11.3258C39.5534 11.2525 39.5033 11.1955 39.4282 11.1873L38.8522 11.1384C38.7854 11.1384 38.7186 11.1873 38.7186 11.2606L38.6685 11.8147C38.6602 11.8881 38.7186 11.9532 38.7854 11.9532Z" fill="url(#paint8_linear_1678_2172)"/>
    <path d="M39.9958 10.7963L40.5719 10.837C40.647 10.8452 40.7054 10.7963 40.7138 10.723L40.7555 10.1608C40.7639 10.0956 40.7138 10.0304 40.6386 10.0222L40.0626 9.98149C39.9958 9.97334 39.9291 10.0304 39.9291 10.0956L39.879 10.6578C39.8706 10.7311 39.9291 10.7882 39.9958 10.7963Z" fill="url(#paint9_linear_1678_2172)"/>
    <path d="M41.0895 9.73698L41.6655 9.77772C41.7323 9.78587 41.7991 9.73698 41.8074 9.66365L41.8491 9.10142C41.8575 9.03624 41.7991 8.97105 41.7323 8.96291L41.1562 8.92217C41.0811 8.91402 41.0227 8.97105 41.0143 9.03624L40.9726 9.59846C40.9642 9.6718 41.0143 9.72883 41.0895 9.73698Z" fill="url(#paint10_linear_1678_2172)"/>
    <path d="M42.2833 8.56362L42.8593 8.60437C42.9345 8.61251 42.9929 8.55548 43.0013 8.49029L43.043 7.92807C43.0513 7.85474 43.0013 7.7977 42.9261 7.78955L42.3501 7.74881C42.2833 7.74066 42.2165 7.78955 42.2165 7.86288L42.1664 8.42511C42.1581 8.49029 42.2165 8.55548 42.2833 8.56362Z" fill="url(#paint11_linear_1678_2172)"/>
    <path d="M43.427 7.5451L44.0113 7.5288C44.0781 7.5288 44.1365 7.47177 44.1365 7.39843L44.1198 6.83621C44.1198 6.77103 44.0614 6.71399 43.9863 6.71399L43.4103 6.73029C43.3435 6.73029 43.285 6.78732 43.285 6.86066L43.3017 7.42288C43.3017 7.48806 43.3602 7.5451 43.427 7.5451Z" fill="url(#paint12_linear_1678_2172)"/>
    <path d="M35.9721 35.3222C35.9665 35.3331 35.9582 35.3412 35.947 35.3466C35.0037 36.3407 33.4259 36.52 32.1486 35.7866C26.7474 32.6985 16.5042 24.5503 9.51683 18.1785C9.15508 17.8471 8.79611 17.5158 8.43992 17.1844C8.23957 16.9997 8.03921 16.815 7.83886 16.6303C7.71085 16.5108 7.58285 16.3913 7.45484 16.2718C7.25449 16.0871 7.05691 15.9024 6.86212 15.7177C6.73412 15.5982 6.60611 15.4787 6.47811 15.3592C6.27775 15.1691 6.08018 14.9817 5.88539 14.797C5.5626 14.4928 5.24537 14.1886 4.9337 13.8844C3.43939 12.4503 2.02021 11.057 0.726244 9.74516C0.601022 9.61479 0.626066 9.38664 0.784681 9.21553L1.97012 7.96071C2.13708 7.7733 2.39587 7.73256 2.52944 7.87108C3.94028 9.30516 5.33441 10.6822 6.70351 12.0022C7.22109 12.5019 7.73589 12.9908 8.24791 13.4689C8.44827 13.659 8.64862 13.8464 8.84898 14.0311C8.97698 14.1506 9.10499 14.2701 9.233 14.3896C9.43335 14.5743 9.6337 14.759 9.83406 14.9437C9.96206 15.0632 10.0901 15.1827 10.2181 15.3022C10.4184 15.4869 10.6216 15.6716 10.8275 15.8563C10.9833 15.9975 11.1419 16.1415 11.3033 16.2881C23.8673 27.6466 35.9721 35.3222 35.9721 35.3222Z" fill="url(#paint13_linear_1678_2172)"/>
    <path d="M6.70352 12.0022C7.2211 12.502 7.7359 12.9908 8.24792 13.4689C8.44828 13.659 8.64864 13.8464 8.84899 14.0311C8.977 14.1506 9.105 14.2701 9.23301 14.3896C9.43336 14.5743 9.63371 14.759 9.83407 14.9437C9.96207 15.0632 10.0901 15.1827 10.2181 15.3022C10.4184 15.4869 10.6216 15.6716 10.8275 15.8563C10.9833 15.9975 11.1419 16.1415 11.3033 16.2881L9.51684 18.1785C9.15509 17.8471 8.79612 17.5158 8.43993 17.1844C8.23958 16.9997 8.03922 16.815 7.83887 16.6303C7.71086 16.5108 7.58286 16.3913 7.45485 16.2718C7.2545 16.0871 7.05693 15.9024 6.86214 15.7178C6.73413 15.5982 6.60613 15.4787 6.47812 15.3592C6.27777 15.1691 6.08019 14.9817 5.8854 14.797C5.56261 14.4928 5.24538 14.1886 4.93372 13.8844L6.70352 12.0022Z" fill="url(#paint14_linear_1678_2172)"/>
    <path d="M10.2181 15.3022C10.4184 15.4869 10.6216 15.6716 10.8275 15.8563L8.43993 17.1845C8.23958 16.9998 8.03922 16.8151 7.83887 16.6304L10.2181 15.3022Z" fill="url(#paint15_linear_1678_2172)"/>
    <path d="M9.23305 14.3896C9.43341 14.5743 9.63376 14.759 9.83412 14.9437L7.4549 16.2719C7.25454 16.0872 7.05697 15.9025 6.86218 15.7178L9.23305 14.3896Z" fill="url(#paint16_linear_1678_2172)"/>
    <path d="M8.2479 13.4689C8.44825 13.659 8.64861 13.8464 8.84896 14.0311L6.47809 15.3592C6.27774 15.1691 6.08017 14.9817 5.88538 14.797L8.2479 13.4689Z" fill="url(#paint17_linear_1678_2172)"/>
    <path d="M18.3158 11.7495C18.3158 11.7495 13.8913 1.15696 12.6224 1.28733C11.3535 1.4177 8.39822 9.09325 8.88241 14.8377C9.05772 16.997 9.56696 18.8303 9.56696 18.8303L18.3158 11.7495Z" fill="url(#paint18_linear_1678_2172)"/>
    <path d="M24.9275 11.7495C24.9275 11.7495 29.352 1.15696 30.6209 1.28733C31.8898 1.4177 34.8451 9.09325 34.3609 14.8377C34.1856 16.997 33.6763 18.8303 33.6763 18.8303L24.9275 11.7495Z" fill="url(#paint19_linear_1678_2172)"/>
    <path d="M26.9812 12.5236C26.9812 12.5236 29.7611 3.49548 30.3789 3.49548C30.4791 3.49548 30.621 4.52215 30.7546 4.68511C30.8297 4.78289 31.2221 4.09845 31.3139 4.24511C32.3324 6.02956 33.3592 11.1059 33.1505 14.0473C33.0336 15.6607 32.6579 16.614 32.6579 16.614L26.9812 12.5236Z" fill="url(#paint20_linear_1678_2172)"/>
    <path d="M16.2705 12.5236C16.2705 12.5236 13.4906 3.49548 12.8728 3.49548C12.7643 3.49548 12.6224 4.52215 12.4972 4.68511C12.4137 4.78289 12.0213 4.09845 11.9378 4.24511C10.911 6.02956 9.88421 11.1059 10.0929 14.0473C10.2098 15.6607 10.5938 16.614 10.5938 16.614L16.2705 12.5236Z" fill="url(#paint21_linear_1678_2172)"/>
    <path d="M34.3359 21.5762C34.3359 24.1347 34.1689 25.9762 33.8767 27.2962C33.7098 28.0784 33.4927 28.6732 33.2423 29.1376C33.0085 29.5695 32.7414 29.8873 32.4492 30.1154C31.9817 30.4821 31.4474 30.6288 30.8798 30.7021C30.7072 30.7293 30.5347 30.7618 30.3622 30.7999C28.5256 31.2154 26.5554 32.5191 25.9961 33.5458C25.3867 34.6702 21.9222 35.8599 21.6217 35.8599C21.3211 35.8599 17.8567 34.6702 17.2473 33.5458C16.6879 32.5191 14.7178 31.2154 12.8812 30.7999C12.7087 30.7618 12.5361 30.7293 12.3636 30.7021C11.7959 30.6288 11.2616 30.4821 10.7941 30.1154C10.502 29.8873 10.2348 29.5695 10.0011 29.1376C9.75063 28.6732 9.53358 28.0784 9.36662 27.2962C9.07443 25.9762 8.90747 24.1347 8.90747 21.5762C8.90747 13.8354 16.2956 9.72876 21.6217 9.72876C26.9478 9.72876 34.3359 13.8354 34.3359 21.5762Z" fill="url(#paint22_linear_1678_2172)"/>
    <path d="M15.6193 29.1703C15.5609 29.1459 14.3421 28.6733 12.6307 28.934C11.4703 29.1052 10.6605 29.1948 10.001 29.1377C9.75059 28.6733 9.53354 28.0785 9.36658 27.2963C9.67546 27.4674 10.1763 27.6874 10.8776 27.7852C12.1549 27.9726 14.125 27.8422 15.6193 29.1703Z" fill="url(#paint23_linear_1678_2172)"/>
    <path d="M15.0017 30.4414C15.0017 30.4414 14.1668 30.3029 13.14 30.7021C13.051 30.7347 12.9647 30.7673 12.8812 30.7999C12.7087 30.7619 12.5362 30.7293 12.3636 30.7021C11.796 30.6288 11.2617 30.4821 10.7942 30.1155C10.9945 30.1888 11.3786 30.2784 11.9045 30.2458C12.7143 30.1806 13.8913 29.8384 15.0017 30.4414Z" fill="url(#paint24_linear_1678_2172)"/>
    <path d="M10.5353 19.9221C10.5353 19.9221 10.7357 21.7555 13.0481 22.6436C15.3522 23.5399 17.8733 24.5095 18.6998 26.8236C19.5346 29.1458 19.2424 30.6858 19.2424 30.6858C19.2424 30.6858 19.2758 28.6977 17.3808 27.8992C16.2788 27.4347 12.2968 27.2962 10.8442 24.0125C10.1763 22.5214 10.5353 19.9221 10.5353 19.9221Z" fill="url(#paint25_linear_1678_2172)"/>
    <path d="M11.5706 22.334C11.5706 22.334 12.0881 22.9695 14.5425 23.7355C16.9885 24.5014 19.1173 25.6503 19.2425 29.4473C19.2425 29.4473 19.0839 28.2007 16.5043 27.6629C13.9247 27.1169 12.0631 24.8844 11.5706 22.334Z" fill="url(#paint26_linear_1678_2172)"/>
    <path d="M21.6217 32.8777C19.9437 32.9266 19.71 33.5458 19.8269 33.9125C19.9437 34.2873 21.1542 35.2488 21.6217 35.2488C22.0892 35.2488 23.2997 34.2873 23.4166 33.9125C23.5334 33.5458 23.2997 32.9266 21.6217 32.8777Z" fill="url(#paint27_linear_1678_2172)"/>
    <path d="M33.8768 27.2963C33.7098 28.0785 33.4928 28.6733 33.2423 29.1377C32.5828 29.1948 31.773 29.1052 30.6127 28.934C28.9013 28.6733 27.6825 29.1459 27.624 29.1703C29.1183 27.8422 31.0885 27.9726 32.3658 27.7852C33.0587 27.6874 33.5679 27.4674 33.8768 27.2963Z" fill="url(#paint28_linear_1678_2172)"/>
    <path d="M32.4492 30.1155C31.9817 30.4821 31.4474 30.6288 30.8797 30.7021C30.7072 30.7293 30.5347 30.7619 30.3621 30.7999C30.2786 30.7673 30.1924 30.7347 30.1033 30.7021C29.0682 30.3029 28.2417 30.4414 28.2417 30.4414C29.352 29.8384 30.5291 30.1806 31.3389 30.2458C31.8648 30.2784 32.2488 30.1888 32.4492 30.1155Z" fill="url(#paint29_linear_1678_2172)"/>
    <path d="M32.7079 19.9221C32.7079 19.9221 32.5076 21.7555 30.1952 22.6436C27.8911 23.5399 25.3699 24.5095 24.5435 26.8236C23.7086 29.1458 24.0008 30.6858 24.0008 30.6858C24.0008 30.6858 23.9674 28.6977 25.8625 27.8992C26.9644 27.4347 30.9465 27.2962 32.3991 24.0125C33.0669 22.5214 32.7079 19.9221 32.7079 19.9221Z" fill="url(#paint30_linear_1678_2172)"/>
    <path d="M31.6728 22.334C31.6728 22.334 31.1552 22.9695 28.7009 23.7355C26.2548 24.5014 24.1261 25.6503 24.0009 29.4473C24.0009 29.4473 24.1595 28.2007 26.739 27.6629C29.3186 27.1169 31.1803 24.8844 31.6728 22.334Z" fill="url(#paint31_linear_1678_2172)"/>
    <path d="M16.4541 13.5991C16.4541 13.5991 16.4625 13.5421 16.4959 13.4199C16.5126 13.371 16.5376 13.2976 16.5793 13.2162C16.6211 13.1428 16.6795 13.0532 16.7714 12.9717C16.8548 12.8984 16.9717 12.8251 17.122 12.8006C17.1971 12.7843 17.2722 12.7843 17.3557 12.7925L17.4058 12.8006C17.4281 12.806 17.4503 12.8115 17.4726 12.8169C17.5143 12.8251 17.5561 12.8414 17.5978 12.8739C17.6396 12.8984 17.6813 12.931 17.7063 12.9799C17.7397 13.0206 17.7481 13.0695 17.7564 13.1265C17.7731 13.2243 17.7564 13.3221 17.7314 13.4117C17.6813 13.591 17.5895 13.7539 17.4809 13.9251C17.3808 14.088 17.2555 14.2591 17.1387 14.4221C17.0218 14.5851 16.9133 14.7562 16.8298 14.9436C16.7407 15.1337 16.6712 15.3347 16.6211 15.5465C16.5793 15.7584 16.546 15.9784 16.5376 16.2065C16.5209 16.6547 16.596 17.1273 16.7213 17.5917L16.7714 17.7628L16.8298 17.9421L16.8882 18.1213L16.955 18.2843C16.9968 18.3984 17.0468 18.5125 17.0969 18.6184C17.147 18.7325 17.2055 18.8384 17.2639 18.9525C17.4976 19.3843 17.7898 19.7754 18.1238 20.1339C18.4577 20.4925 18.825 20.8184 19.1923 21.128C19.2814 21.2041 19.3704 21.2801 19.4595 21.3562C19.5596 21.4458 19.6348 21.511 19.7182 21.6088C19.7628 21.6522 19.8045 21.6984 19.8435 21.7473C19.8824 21.7907 19.9214 21.8342 19.9603 21.8776C20.0355 21.9673 20.0939 22.0651 20.1607 22.1628C20.4111 22.5376 20.5781 22.9288 20.695 23.3036C20.8119 23.6702 20.8703 24.0206 20.8953 24.3302C20.9204 24.4851 20.9204 24.6317 20.9204 24.7702C20.9204 24.906 20.9204 25.0283 20.9204 25.1369C20.9037 25.3569 20.8953 25.5362 20.8703 25.6502C20.8619 25.7725 20.8536 25.8295 20.8536 25.8295C20.8536 25.8295 20.8536 25.7725 20.8536 25.6502C20.8536 25.5932 20.8536 25.5199 20.8536 25.4302C20.848 25.3488 20.8425 25.251 20.8369 25.1369C20.8313 25.0283 20.8202 24.9088 20.8035 24.7784C20.7868 24.648 20.7785 24.5013 20.7451 24.3547C20.6866 24.0532 20.6032 23.7191 20.4696 23.3769C20.336 23.0265 20.1524 22.668 19.9103 22.3258C19.8435 22.2443 19.785 22.1547 19.7099 22.0732C19.6709 22.0352 19.6348 21.9944 19.6014 21.951C19.5624 21.9184 19.5235 21.8831 19.4845 21.8451L19.4261 21.788L19.3593 21.731C19.3203 21.693 19.2786 21.6549 19.2341 21.6169C19.145 21.5409 19.0532 21.4648 18.9586 21.3888C18.5829 21.0873 18.1905 20.7695 17.8316 20.3947C17.4809 20.0199 17.1554 19.5962 16.9049 19.1317C16.8465 19.0176 16.7797 18.9036 16.7296 18.7814C16.6795 18.6673 16.6211 18.5451 16.5793 18.4228L16.5126 18.2354L16.4541 18.0562L16.3957 17.8769L16.3456 17.6895C16.212 17.1925 16.1536 16.6791 16.1786 16.1902C16.1953 15.9376 16.2371 15.7013 16.2955 15.4651C16.3623 15.2369 16.4541 15.0169 16.5543 14.8132C16.6628 14.6176 16.7881 14.4302 16.9216 14.2591C17.0552 14.1043 17.1804 13.9576 17.2889 13.8028C17.3975 13.648 17.4893 13.5013 17.5477 13.3547C17.5728 13.2813 17.5895 13.208 17.5895 13.1428C17.5839 13.0776 17.5589 13.0288 17.5143 12.9962C17.4893 12.9799 17.4559 12.9636 17.4309 12.9473L17.3808 12.9391L17.3307 12.9228C17.2639 12.9147 17.1971 12.9065 17.1387 12.9147C17.0135 12.9228 16.9049 12.9717 16.8214 13.0369C16.738 13.0939 16.6712 13.1754 16.6211 13.2406C16.571 13.3139 16.546 13.3791 16.5209 13.428C16.4708 13.5421 16.4541 13.5991 16.4541 13.5991Z" fill="url(#paint32_linear_1678_2172)"/>
    <path d="M20.4195 19.6776C20.4195 19.6776 18.8333 19.2947 18.107 17.551C17.698 16.5895 17.9735 15.9458 18.441 15.9539C18.9085 15.9621 18.9001 16.3939 18.9252 17.0621C18.9669 18.3087 19.7015 19.2458 20.4195 19.6776Z" fill="url(#paint33_linear_1678_2172)"/>
    <path d="M26.7891 13.5991C26.7891 13.5991 26.7724 13.5421 26.7223 13.428C26.6973 13.3791 26.6723 13.3139 26.6222 13.2406C26.5721 13.1754 26.5053 13.0939 26.4218 13.0369C26.3383 12.9717 26.2298 12.9228 26.1046 12.9147C26.0461 12.9065 25.9794 12.9147 25.9126 12.9228L25.8625 12.9391L25.8124 12.9473C25.7874 12.9636 25.754 12.9799 25.7289 12.9962C25.6844 13.0288 25.6593 13.0776 25.6538 13.1428C25.6538 13.208 25.6705 13.2813 25.6955 13.3547C25.754 13.5013 25.8458 13.648 25.9543 13.8028C26.0628 13.9576 26.1881 14.1043 26.3216 14.2591C26.4552 14.4302 26.5804 14.6176 26.689 14.8132C26.7891 15.0169 26.881 15.2369 26.9477 15.4651C27.0062 15.7013 27.0479 15.9376 27.0646 16.1902C27.0897 16.6791 27.0312 17.1925 26.8977 17.6895L26.8476 17.8769L26.7891 18.0562L26.7307 18.2354L26.6639 18.4228C26.6222 18.5451 26.5637 18.6673 26.5136 18.7814C26.4635 18.9036 26.3968 19.0176 26.3383 19.1317C26.0879 19.5962 25.7623 20.0199 25.4117 20.3947C25.0527 20.7695 24.6604 21.0873 24.2847 21.3888C24.1901 21.4648 24.0982 21.5409 24.0092 21.6169C23.9647 21.6549 23.9229 21.693 23.884 21.731L23.8172 21.788L23.7588 21.8451C23.7198 21.8831 23.6808 21.9184 23.6419 21.951C23.6085 21.9944 23.5723 22.0352 23.5334 22.0732C23.4582 22.1547 23.3998 22.2443 23.333 22.3258C23.0909 22.668 22.9072 23.0265 22.7737 23.3769C22.6401 23.7191 22.5566 24.0532 22.4982 24.3547C22.4648 24.5013 22.4564 24.648 22.4397 24.7784C22.4231 24.9088 22.4119 25.0283 22.4064 25.1369C22.4008 25.251 22.3952 25.3488 22.3897 25.4302C22.3897 25.5199 22.3897 25.5932 22.3897 25.6502C22.3897 25.7725 22.3897 25.8295 22.3897 25.8295C22.3897 25.8295 22.3813 25.7725 22.373 25.6502C22.3479 25.5362 22.3396 25.3569 22.3229 25.1369C22.3229 25.0283 22.3229 24.906 22.3229 24.7702C22.3229 24.6317 22.3229 24.4851 22.3479 24.3302C22.373 24.0206 22.4314 23.6702 22.5483 23.3036C22.6652 22.9288 22.8321 22.5376 23.0826 22.1628C23.1493 22.0651 23.2078 21.9673 23.2829 21.8776C23.3219 21.8342 23.3608 21.7907 23.3998 21.7473C23.4387 21.6984 23.4805 21.6522 23.525 21.6088C23.6085 21.511 23.6836 21.4458 23.7838 21.3562C23.8728 21.2801 23.9619 21.2041 24.0509 21.128C24.4183 20.8184 24.7856 20.4925 25.1195 20.1339C25.4534 19.7754 25.7456 19.3843 25.9794 18.9525C26.0378 18.8384 26.0962 18.7325 26.1463 18.6184C26.1964 18.5125 26.2465 18.3984 26.2882 18.2843L26.355 18.1213L26.4135 17.9421L26.4719 17.7628L26.522 17.5917C26.6472 17.1273 26.7223 16.6547 26.7056 16.2065C26.6973 15.9784 26.6639 15.7584 26.6222 15.5465C26.5721 15.3347 26.5025 15.1337 26.4135 14.9436C26.33 14.7562 26.2215 14.5851 26.1046 14.4221C25.9877 14.2591 25.8625 14.088 25.7623 13.9251C25.6538 13.7539 25.562 13.591 25.5119 13.4117C25.4868 13.3221 25.4701 13.2243 25.4868 13.1265C25.4952 13.0695 25.5035 13.0206 25.5369 12.9799C25.562 12.931 25.6037 12.8984 25.6454 12.8739C25.6872 12.8414 25.7289 12.8251 25.7707 12.8169C25.7929 12.8115 25.8152 12.806 25.8374 12.8006L25.8875 12.7925C25.971 12.7843 26.0461 12.7843 26.1213 12.8006C26.2715 12.8251 26.3884 12.8984 26.4719 12.9717C26.5637 13.0532 26.6222 13.1428 26.6639 13.2162C26.7056 13.2976 26.7307 13.371 26.7474 13.4199C26.7808 13.5421 26.7891 13.5991 26.7891 13.5991Z" fill="url(#paint34_linear_1678_2172)"/>
    <path d="M22.974 15.351C22.8738 14.528 21.8887 13.8354 21.6216 12.8495C21.3544 13.8354 20.3694 14.528 20.2692 15.351C20.1607 16.1821 21.6216 19.9547 21.6216 19.9547C21.6216 19.9547 23.0825 16.1821 22.974 15.351Z" fill="url(#paint35_linear_1678_2172)"/>
    <path d="M22.8237 19.6776C22.8237 19.6776 24.4099 19.2947 25.1362 17.551C25.5452 16.5895 25.2697 15.9458 24.8022 15.9539C24.3347 15.9621 24.3431 16.3939 24.318 17.0621C24.2763 18.3087 23.5417 19.2458 22.8237 19.6776Z" fill="url(#paint36_linear_1678_2172)"/>
    <path d="M27.3401 21.3725C27.3401 21.3725 28.2751 21.3969 28.6007 20.7125C28.8845 20.1013 28.25 20.191 28.3085 19.2539C28.3753 18.325 29.569 18.0643 30.1785 18.8954C30.7879 19.7184 30.2118 20.908 28.9596 21.2828C28.0079 21.5762 27.3401 21.3725 27.3401 21.3725Z" fill="url(#paint37_linear_1678_2172)"/>
    <path d="M26.2799 22.4969C26.33 22.7087 26.547 22.8472 26.7641 22.7984C26.9895 22.7495 27.1231 22.5376 27.073 22.3258C27.0229 22.1058 26.8058 21.9754 26.5888 22.0243C26.3634 22.0732 26.2298 22.285 26.2799 22.4969Z" fill="url(#paint38_linear_1678_2172)"/>
    <path d="M25.2615 23.2954C25.3032 23.4665 25.4786 23.5724 25.6455 23.5398C25.8208 23.4991 25.9293 23.328 25.8876 23.1569C25.8459 22.9858 25.6789 22.8798 25.5036 22.9206C25.3283 22.9532 25.2198 23.1243 25.2615 23.2954Z" fill="url(#paint39_linear_1678_2172)"/>
    <path d="M24.5269 24.2651C24.5519 24.371 24.6604 24.4362 24.7606 24.4117C24.8608 24.3873 24.9276 24.2895 24.9025 24.1836C24.8775 24.0858 24.7773 24.0206 24.6771 24.0451C24.5686 24.0614 24.5102 24.1673 24.5269 24.2651Z" fill="url(#paint40_linear_1678_2172)"/>
    <path d="M23.9925 25.1613C24.0092 25.2346 24.076 25.2835 24.1512 25.2672C24.2263 25.2509 24.268 25.1776 24.2513 25.1042C24.2346 25.039 24.1595 24.9902 24.0927 25.0065C24.0176 25.0228 23.9758 25.0961 23.9925 25.1613Z" fill="url(#paint41_linear_1678_2172)"/>
    <path d="M15.9032 21.3725C15.9032 21.3725 14.9682 21.3969 14.6427 20.7125C14.3588 20.1013 14.9933 20.191 14.9348 19.2539C14.8681 18.325 13.6743 18.0643 13.0649 18.8954C12.4554 19.7184 13.0315 20.908 14.2837 21.2828C15.2354 21.5762 15.9032 21.3725 15.9032 21.3725Z" fill="url(#paint42_linear_1678_2172)"/>
    <path d="M16.9635 22.4969C16.9134 22.7087 16.6963 22.8472 16.4793 22.7984C16.2539 22.7495 16.1203 22.5376 16.1704 22.3258C16.2205 22.1058 16.4375 21.9754 16.6546 22.0243C16.88 22.0732 17.0136 22.285 16.9635 22.4969Z" fill="url(#paint43_linear_1678_2172)"/>
    <path d="M17.982 23.2954C17.9402 23.4665 17.7649 23.5724 17.598 23.5398C17.4226 23.4991 17.3141 23.328 17.3559 23.1569C17.3976 22.9858 17.5646 22.8798 17.7399 22.9206C17.9152 22.9532 18.0237 23.1243 17.982 23.2954Z" fill="url(#paint44_linear_1678_2172)"/>
    <path d="M18.7166 24.2651C18.6916 24.371 18.5831 24.4362 18.4829 24.4117C18.3827 24.3873 18.3159 24.2895 18.341 24.1836C18.366 24.0858 18.4662 24.0206 18.5664 24.0451C18.6749 24.0614 18.7333 24.1673 18.7166 24.2651Z" fill="url(#paint45_linear_1678_2172)"/>
    <path d="M19.2509 25.1613C19.2342 25.2346 19.1674 25.2835 19.0922 25.2672C19.0171 25.2509 18.9754 25.1776 18.9921 25.1042C19.0088 25.039 19.0839 24.9902 19.1507 25.0065C19.2258 25.0228 19.2675 25.0961 19.2509 25.1613Z" fill="url(#paint46_linear_1678_2172)"/>
  </g>
  <defs>
    <radialGradient id="paint0_radial_1678_2172" cx="0" cy="0" r="1" gradientUnits="userSpaceOnUse" gradientTransform="translate(23.1313 22.0128) scale(22.5212 21.9817)">
      <stop offset="0.767" stop-color="#F23434"/>
      <stop offset="1" stop-color="#FF5956"/>
    </radialGradient>
    <linearGradient id="paint1_linear_1678_2172" x1="1.7583" y1="0.596437" x2="41.4904" y2="0.596437" gradientUnits="userSpaceOnUse">
      <stop offset="0.024" stop-color="#B839E2"/>
      <stop offset="0.499" stop-color="#F79800"/>
      <stop offset="1" stop-color="#B70D22"/>
    </linearGradient>
    <linearGradient id="paint2_linear_1678_2172" x1="70.6194" y1="17.7621" x2="20.2349" y2="69.3833" gradientUnits="userSpaceOnUse">
      <stop stop-color="#FFDB2F"/>
      <stop offset="0.49" stop-color="#F79800"/>
      <stop offset="1" stop-color="#FFDB2F"/>
    </linearGradient>
    <radialGradient id="paint3_radial_1678_2172" cx="0" cy="0" r="1" gradientUnits="userSpaceOnUse" gradientTransform="translate(21.6243 22.0128) scale(21.5761 21.0592)">
      <stop stop-color="#210601"/>
      <stop offset="1" stop-color="#B70D22"/>
    </radialGradient>
    <linearGradient id="paint4_linear_1678_2172" x1="1.7777" y1="20.2267" x2="9.03263" y2="15.2518" gradientUnits="userSpaceOnUse">
      <stop offset="0.204" stop-color="#CCCCCC"/>
      <stop offset="1" stop-color="white"/>
    </linearGradient>
    <linearGradient id="paint5_linear_1678_2172" x1="35.2325" y1="4.45895" x2="45.4885" y2="5.1955" gradientUnits="userSpaceOnUse">
      <stop offset="0.024" stop-color="#B70D22"/>
      <stop offset="1" stop-color="#F79800"/>
    </linearGradient>
    <linearGradient id="paint6_linear_1678_2172" x1="30.8985" y1="13.9087" x2="37.6704" y2="7.75603" gradientUnits="userSpaceOnUse">
      <stop offset="0.024" stop-color="#B70D22"/>
      <stop offset="1" stop-color="#F79800"/>
    </linearGradient>
    <linearGradient id="paint7_linear_1678_2172" x1="37.432" y1="12.2721" x2="38.3125" y2="12.2721" gradientUnits="userSpaceOnUse">
      <stop stop-color="#FFDB2F"/>
      <stop offset="0.993" stop-color="#F79800"/>
    </linearGradient>
    <linearGradient id="paint8_linear_1678_2172" x1="38.6687" y1="11.1411" x2="39.5492" y2="11.1411" gradientUnits="userSpaceOnUse">
      <stop stop-color="#FFDB2F"/>
      <stop offset="0.993" stop-color="#F79800"/>
    </linearGradient>
    <linearGradient id="paint9_linear_1678_2172" x1="39.8795" y1="9.9806" x2="40.7599" y2="9.9806" gradientUnits="userSpaceOnUse">
      <stop stop-color="#FFDB2F"/>
      <stop offset="0.993" stop-color="#F79800"/>
    </linearGradient>
    <linearGradient id="paint10_linear_1678_2172" x1="40.969" y1="8.92078" x2="41.8495" y2="8.92078" gradientUnits="userSpaceOnUse">
      <stop stop-color="#FFDB2F"/>
      <stop offset="0.993" stop-color="#F79800"/>
    </linearGradient>
    <linearGradient id="paint11_linear_1678_2172" x1="42.167" y1="7.74539" x2="43.0475" y2="7.74539" gradientUnits="userSpaceOnUse">
      <stop stop-color="#FFDB2F"/>
      <stop offset="0.993" stop-color="#F79800"/>
    </linearGradient>
    <linearGradient id="paint12_linear_1678_2172" x1="43.285" y1="6.71562" x2="44.1343" y2="6.71562" gradientUnits="userSpaceOnUse">
      <stop stop-color="#FFDB2F"/>
      <stop offset="0.993" stop-color="#F79800"/>
    </linearGradient>
    <linearGradient id="paint13_linear_1678_2172" x1="10.8509" y1="-7.82706" x2="49.1059" y2="24.3753" gradientUnits="userSpaceOnUse">
      <stop offset="0.024" stop-color="#B70D22"/>
      <stop offset="0.979" stop-color="#FF5956"/>
    </linearGradient>
    <linearGradient id="paint14_linear_1678_2172" x1="8.08706" y1="20.8174" x2="3.282" y2="16.5391" gradientUnits="userSpaceOnUse">
      <stop stop-color="#210601"/>
      <stop offset="1" stop-color="#6A1705"/>
    </linearGradient>
    <linearGradient id="paint15_linear_1678_2172" x1="7.83912" y1="15.2989" x2="10.8235" y2="15.2989" gradientUnits="userSpaceOnUse">
      <stop stop-color="#FFDB2F"/>
      <stop offset="0.993" stop-color="#F79800"/>
    </linearGradient>
    <linearGradient id="paint16_linear_1678_2172" x1="6.85801" y1="14.3895" x2="9.83019" y2="14.3895" gradientUnits="userSpaceOnUse">
      <stop stop-color="#FFDB2F"/>
      <stop offset="0.993" stop-color="#F79800"/>
    </linearGradient>
    <linearGradient id="paint17_linear_1678_2172" x1="5.88538" y1="13.4727" x2="8.84679" y2="13.4727" gradientUnits="userSpaceOnUse">
      <stop stop-color="#FFDB2F"/>
      <stop offset="0.993" stop-color="#F79800"/>
    </linearGradient>
    <linearGradient id="paint18_linear_1678_2172" x1="-3.45538" y1="17.1593" x2="-3.45538" y2="1.53462" gradientUnits="userSpaceOnUse">
      <stop stop-color="#C6BCDD"/>
      <stop offset="1" stop-color="white"/>
    </linearGradient>
    <linearGradient id="paint19_linear_1678_2172" x1="12.6452" y1="17.1593" x2="12.6452" y2="1.53462" gradientUnits="userSpaceOnUse">
      <stop stop-color="#C6BCDD"/>
      <stop offset="1" stop-color="white"/>
    </linearGradient>
    <linearGradient id="paint20_linear_1678_2172" x1="15.5145" y1="13.5649" x2="15.5145" y2="4.74671" gradientUnits="userSpaceOnUse">
      <stop offset="0.223" stop-color="#B70D22"/>
      <stop offset="0.979" stop-color="#FF5956"/>
    </linearGradient>
    <linearGradient id="paint21_linear_1678_2172" x1="27.7317" y1="13.5649" x2="27.7317" y2="4.74671" gradientUnits="userSpaceOnUse">
      <stop offset="0.223" stop-color="#B70D22"/>
      <stop offset="0.979" stop-color="#FF5956"/>
    </linearGradient>
    <linearGradient id="paint22_linear_1678_2172" x1="7.52469" y1="36.815" x2="7.52469" y2="14.1188" gradientUnits="userSpaceOnUse">
      <stop stop-color="#C6BCDD"/>
      <stop offset="1" stop-color="white"/>
    </linearGradient>
    <linearGradient id="paint23_linear_1678_2172" x1="9.36349" y1="27.2959" x2="15.6193" y2="27.2959" gradientUnits="userSpaceOnUse">
      <stop offset="0.024" stop-color="#B70D22"/>
      <stop offset="1" stop-color="#F79800"/>
    </linearGradient>
    <linearGradient id="paint24_linear_1678_2172" x1="10.7971" y1="30.0903" x2="14.9999" y2="30.0903" gradientUnits="userSpaceOnUse">
      <stop offset="0.024" stop-color="#B70D22"/>
      <stop offset="1" stop-color="#F79800"/>
    </linearGradient>
    <linearGradient id="paint25_linear_1678_2172" x1="12.8532" y1="35.9727" x2="4.29689" y2="26.1972" gradientUnits="userSpaceOnUse">
      <stop offset="0.024" stop-color="#B70D22"/>
      <stop offset="1" stop-color="#F79800"/>
    </linearGradient>
    <linearGradient id="paint26_linear_1678_2172" x1="15.7576" y1="32.5619" x2="8.61682" y2="26.4232" gradientUnits="userSpaceOnUse">
      <stop offset="0.107" stop-color="#210601"/>
      <stop offset="1" stop-color="#6A1705"/>
    </linearGradient>
    <linearGradient id="paint27_linear_1678_2172" x1="22.4312" y1="33.0032" x2="22.4312" y2="35.0497" gradientUnits="userSpaceOnUse">
      <stop stop-color="#210601"/>
      <stop offset="1" stop-color="#6A1705"/>
    </linearGradient>
    <linearGradient id="paint28_linear_1678_2172" x1="33.9407" y1="29.1721" x2="27.4746" y2="29.1721" gradientUnits="userSpaceOnUse">
      <stop offset="0.024" stop-color="#B70D22"/>
      <stop offset="1" stop-color="#F79800"/>
    </linearGradient>
    <linearGradient id="paint29_linear_1678_2172" x1="32.4247" y1="30.7592" x2="28.3127" y2="30.8454" gradientUnits="userSpaceOnUse">
      <stop offset="0.024" stop-color="#B70D22"/>
      <stop offset="1" stop-color="#F79800"/>
    </linearGradient>
    <linearGradient id="paint30_linear_1678_2172" x1="17.696" y1="23.3802" x2="26.7289" y2="14.7594" gradientUnits="userSpaceOnUse">
      <stop offset="0.024" stop-color="#B70D22"/>
      <stop offset="1" stop-color="#F79800"/>
    </linearGradient>
    <linearGradient id="paint31_linear_1678_2172" x1="20.9484" y1="25.0692" x2="27.8884" y2="19.2632" gradientUnits="userSpaceOnUse">
      <stop stop-color="#210601"/>
      <stop offset="1" stop-color="#6A1705"/>
    </linearGradient>
    <linearGradient id="paint32_linear_1678_2172" x1="-0.242231" y1="25.6144" x2="-0.242231" y2="12.983" gradientUnits="userSpaceOnUse">
      <stop offset="0.024" stop-color="#B70D22"/>
      <stop offset="1" stop-color="#F79800"/>
    </linearGradient>
    <linearGradient id="paint33_linear_1678_2172" x1="17.4432" y1="16.3011" x2="19.1879" y2="20.1754" gradientUnits="userSpaceOnUse">
      <stop offset="0.024" stop-color="#B70D22"/>
      <stop offset="1" stop-color="#F79800"/>
    </linearGradient>
    <linearGradient id="paint34_linear_1678_2172" x1="5.90418" y1="25.6144" x2="5.90418" y2="12.983" gradientUnits="userSpaceOnUse">
      <stop offset="0.024" stop-color="#B70D22"/>
      <stop offset="1" stop-color="#F79800"/>
    </linearGradient>
    <linearGradient id="paint35_linear_1678_2172" x1="31.3551" y1="14.1686" x2="31.3551" y2="19.3704" gradientUnits="userSpaceOnUse">
      <stop offset="0.024" stop-color="#B70D22"/>
      <stop offset="1" stop-color="#F79800"/>
    </linearGradient>
    <linearGradient id="paint36_linear_1678_2172" x1="25.8" y1="16.3011" x2="24.0553" y2="20.1754" gradientUnits="userSpaceOnUse">
      <stop offset="0.024" stop-color="#B70D22"/>
      <stop offset="1" stop-color="#F79800"/>
    </linearGradient>
    <linearGradient id="paint37_linear_1678_2172" x1="25.8838" y1="19.9982" x2="28.5135" y2="16.8728" gradientUnits="userSpaceOnUse">
      <stop offset="0.024" stop-color="#B70D22"/>
      <stop offset="1" stop-color="#F79800"/>
    </linearGradient>
    <linearGradient id="paint38_linear_1678_2172" x1="26.1483" y1="22.1897" x2="26.8911" y2="21.8805" gradientUnits="userSpaceOnUse">
      <stop offset="0.024" stop-color="#B70D22"/>
      <stop offset="0.979" stop-color="#FF5956"/>
    </linearGradient>
    <linearGradient id="paint39_linear_1678_2172" x1="25.1571" y1="23.052" x2="25.7471" y2="22.8064" gradientUnits="userSpaceOnUse">
      <stop offset="0.024" stop-color="#B70D22"/>
      <stop offset="0.979" stop-color="#FF5956"/>
    </linearGradient>
    <linearGradient id="paint40_linear_1678_2172" x1="24.4668" y1="24.1215" x2="24.82" y2="23.9744" gradientUnits="userSpaceOnUse">
      <stop offset="0.024" stop-color="#B70D22"/>
      <stop offset="0.979" stop-color="#FF5956"/>
    </linearGradient>
    <linearGradient id="paint41_linear_1678_2172" x1="23.947" y1="25.0632" x2="24.1919" y2="24.9613" gradientUnits="userSpaceOnUse">
      <stop offset="0.024" stop-color="#B70D22"/>
      <stop offset="0.979" stop-color="#FF5956"/>
    </linearGradient>
    <linearGradient id="paint42_linear_1678_2172" x1="14.1049" y1="22.8493" x2="11.3645" y2="19.7897" gradientUnits="userSpaceOnUse">
      <stop offset="0.024" stop-color="#B70D22"/>
      <stop offset="1" stop-color="#F79800"/>
    </linearGradient>
    <linearGradient id="paint43_linear_1678_2172" x1="17.095" y1="22.1897" x2="16.3523" y2="21.8805" gradientUnits="userSpaceOnUse">
      <stop offset="0.024" stop-color="#B70D22"/>
      <stop offset="0.979" stop-color="#FF5956"/>
    </linearGradient>
    <linearGradient id="paint44_linear_1678_2172" x1="18.0863" y1="23.052" x2="17.4964" y2="22.8064" gradientUnits="userSpaceOnUse">
      <stop offset="0.024" stop-color="#B70D22"/>
      <stop offset="0.979" stop-color="#FF5956"/>
    </linearGradient>
    <linearGradient id="paint45_linear_1678_2172" x1="18.7767" y1="24.1215" x2="18.4235" y2="23.9744" gradientUnits="userSpaceOnUse">
      <stop offset="0.024" stop-color="#B70D22"/>
      <stop offset="0.979" stop-color="#FF5956"/>
    </linearGradient>
    <linearGradient id="paint46_linear_1678_2172" x1="19.2964" y1="25.0632" x2="19.0515" y2="24.9613" gradientUnits="userSpaceOnUse">
      <stop offset="0.024" stop-color="#B70D22"/>
      <stop offset="0.979" stop-color="#FF5956"/>
    </linearGradient>
    <clipPath id="clip0_1678_2172">
      <rect width="47" height="44" fill="white"/>
    </clipPath>
  </defs>
</svg>