<svg xmlns="http://www.w3.org/2000/svg" width="14" height="14" viewBox="0 0 14 14" fill="none">
  <path d="M8.00917 2.04751L9.03584 4.10084C9.17584 4.38668 9.54917 4.66084 9.86417 4.71334L11.725 5.02251C12.915 5.22084 13.195 6.08418 12.3375 6.93584L10.8908 8.38251C10.6458 8.62751 10.5117 9.10001 10.5875 9.43834L11.0017 11.2292C11.3283 12.6467 10.5758 13.195 9.32167 12.4542L7.57751 11.4217C7.26251 11.235 6.74334 11.235 6.42251 11.4217L4.67834 12.4542C3.43001 13.195 2.67167 12.6408 2.99834 11.2292L3.41251 9.43834C3.48834 9.10001 3.35417 8.62751 3.10917 8.38251L1.66251 6.93584C0.810841 6.08418 1.08501 5.22084 2.27501 5.02251L4.13584 4.71334C4.44501 4.66084 4.81834 4.38668 4.95834 4.10084L5.98501 2.04751C6.54501 0.933342 7.45501 0.933342 8.00917 2.04751Z" stroke="#FFAD49" stroke-width="1.5" stroke-linecap="round" stroke-linejoin="round"/>
</svg>