<svg xmlns="http://www.w3.org/2000/svg" width="16" height="18" viewBox="0 0 16 18" fill="none">
  <g clip-path="url(#clip0_1678_2257)">
    <path d="M6.47879 6.42765V9.37247C5.77006 9.60006 5.0685 9.76558 4.41704 10.0483C2.66313 10.8001 2.73471 12.6483 3.37901 13.6552C4.23091 14.9932 6.17812 15.407 7.3808 14.4897C8.37588 13.738 8.5978 12.6483 8.60496 11.5104C8.61212 8.43454 8.60496 5.36558 8.5978 2.28972C8.5978 1.53799 8.5978 0.786267 8.5978 -0.00683594H11.6618C12.0126 2.41385 13.3012 3.97937 16 4.20006V7.04144C15.2412 7.14489 14.511 7.06213 13.8023 6.80006C13.1079 6.53799 12.4349 6.22765 11.7119 5.9242C11.7119 6.11041 11.7119 6.28282 11.7119 6.45523C11.6904 8.34489 11.7262 10.2414 11.6403 12.1242C11.5258 14.6552 9.74322 16.9656 7.41659 17.6966C3.7799 18.8276 0.751717 16.4897 0.143216 13.5173C-0.357902 11.0621 0.336505 8.97247 2.54858 7.50351C3.70116 6.73799 5.02554 6.45523 6.47163 6.40696L6.47879 6.42765Z" fill="#FFFAF3"/>
  </g>
  <defs>
    <clipPath id="clip0_1678_2257">
      <rect width="16" height="18" fill="white"/>
    </clipPath>
  </defs>
</svg>