<svg xmlns="http://www.w3.org/2000/svg" width="18" height="19" viewBox="0 0 18 19" fill="none">
  <g clip-path="url(#clip0_1678_2249)">
    <path d="M18 18.974C16.2421 18.974 14.6366 18.9938 13.0322 18.9529C12.7901 18.9466 12.4785 18.7126 12.3274 18.491C10.9096 16.4123 9.52034 14.3132 8.12184 12.2206C8.01427 12.0597 7.90052 11.9032 7.73742 11.6701C6.68556 12.9247 5.66108 14.1448 4.63929 15.3673C3.90438 16.2466 3.11625 17.087 2.45691 18.0232C1.86042 18.8699 1.16059 19.1936 0.103335 18.8858C2.40987 16.1176 4.70677 13.3616 7.02757 10.5767C4.7006 7.08324 2.39291 3.61717 0 0.0236204C1.8076 0.0236204 3.45286 0.00455645 5.09659 0.0470532C5.30981 0.0526135 5.56777 0.338175 5.71621 0.557411C7.15211 2.68185 8.56912 4.82019 10.0201 6.99745C11.7019 4.98144 13.3862 3.02421 14.9948 1.00303C15.6167 0.221806 16.2526 -0.245658 17.3507 0.134827C15.161 2.76367 12.9736 5.38893 10.7395 8.07059C13.1359 11.6689 15.525 15.2573 18 18.9736V18.974ZM15.7166 17.794C15.6487 17.6181 15.6345 17.5446 15.5967 17.489C12.0212 12.2122 8.44612 6.93589 4.85984 1.66709C4.75111 1.50743 4.5348 1.33943 4.36013 1.3291C3.70079 1.28939 3.03759 1.31322 2.33584 1.31322C2.3744 1.45898 2.37594 1.53603 2.41141 1.58885C5.99923 6.88704 9.58743 12.1848 13.1907 17.4719C13.304 17.6379 13.5705 17.767 13.7737 17.7801C14.3917 17.8198 15.0141 17.7944 15.7166 17.7944V17.794Z" fill="#FBFBFB"/>
  </g>
  <defs>
    <clipPath id="clip0_1678_2249">
      <rect width="18" height="19" fill="white"/>
    </clipPath>
  </defs>
</svg>